<svg xmlns="http://www.w3.org/2000/svg" viewBox="0 0 300.69043 90.22314">
  <title>roshni-logo</title>
  <g id="dc374ea6-f797-4605-beb0-39f3434721a6" data-name="2">
    <g>
      <path d="M69.81323,77.03955l-.20361.03369-1.25732-1.42676a1.68351,1.68351,0,0,0-1.3252-.57764h-4.519v5.94629h2.44678a1.75158,1.75158,0,0,0,1.63086-1.08838v-.0332h.20361v3.46582h-.20361V83.3252a1.77549,1.77549,0,0,0-.64551-.81543,1.69578,1.69578,0,0,0-.98535-.30566H62.50806v6.01416a1.68838,1.68838,0,0,0,.30615.98535,1.76434,1.76434,0,0,0,.81543.64551l.44141.16992v.2041H58.63452V90.019l.44189-.16992a1.76434,1.76434,0,0,0,.81543-.64551,1.68793,1.68793,0,0,0,.30566-.98535v-12.334a1.6901,1.6901,0,0,0-.30566-.98535,1.76434,1.76434,0,0,0-.81543-.64551l-.44189-.16992v-.2041h10.7373Z" style="fill: #201600"/>
      <path d="M93.90356,73.87939v.2041l-.44189.16992a1.7668,1.7668,0,0,0-.81543.64551,1.6936,1.6936,0,0,0-.30566.98535v9.48a5.27066,5.27066,0,0,1-.4248,2.10645A5.52193,5.52193,0,0,1,89.0105,90.376a5.27236,5.27236,0,0,1-2.10645.4248h-1.563a5.273,5.273,0,0,1-2.10693-.4248,5.52326,5.52326,0,0,1-2.90479-2.90527,5.254,5.254,0,0,1-.4248-2.10645v-9.48a1.6936,1.6936,0,0,0-.30566-.98535,1.76926,1.76926,0,0,0-.81543-.64551l-.44189-.16992v-.2041h5.43652v.2041l-.44189.16992a1.7668,1.7668,0,0,0-.81543.64551,1.6936,1.6936,0,0,0-.30566.98535v9.48a6.3834,6.3834,0,0,0,.20361,1.64795,4.16786,4.16786,0,0,0,.61182,1.3418,2.93715,2.93715,0,0,0,1.05322.91748,3.23931,3.23931,0,0,0,1.5293.33984h1.25684a4.01131,4.01131,0,0,0,1.64795-.33984,4.40167,4.40167,0,0,0,2.25977-2.25928,4.01755,4.01755,0,0,0,.33984-1.64795v-9.48a1.69055,1.69055,0,0,0-.30615-.98535,1.76434,1.76434,0,0,0-.81543-.64551l-.44141-.16992v-.2041Z" style="fill: #201600"/>
      <path d="M115.51343,89.8833v.20361h-3.80518c-.09082-.18115-.2041-.42969-.33984-.74756q-.17065-.40723-.47559-1.07031-.30615-.66211-.74756-1.64795-.37427-.81519-.71387-1.59668-.33984-.78149-.6626-1.35937a3.94552,3.94552,0,0,0-.69629-.93408,1.12858,1.12858,0,0,0-.78174-.35693h-1.93652v5.74219a1.69142,1.69142,0,0,0,.30566.98535,1.76371,1.76371,0,0,0,.81543.64551l.44189.16992v.2041h-5.43652V89.917l.44189-.16992a1.76616,1.76616,0,0,0,.81543-.64551,1.69142,1.69142,0,0,0,.30566-.98535v-12.334a1.69578,1.69578,0,0,0-.30566-.98535,1.77237,1.77237,0,0,0-.81543-.64551l-.44189-.16992v-.2041h6.11621a9.68954,9.68954,0,0,1,2.81982.33984,4.35318,4.35318,0,0,1,1.71582.93457,3.13176,3.13176,0,0,1,.8667,1.376,5.70467,5.70467,0,0,1,.23779,1.665,5.95069,5.95069,0,0,1-.13574,1.291,3.69438,3.69438,0,0,1-.459,1.13818,3.19057,3.19057,0,0,1-.90039.93457,4.57846,4.57846,0,0,1-1.46094.64551,8.20746,8.20746,0,0,1,1.12109,1.69922q.47534.95142.91748,1.90283.30615.71338.57764,1.3418.27173.62915.50977,1.13818a3.006,3.006,0,0,0,1.69873,1.63135Zm-6.55762-8.86816a2.85277,2.85277,0,0,0,1.34229-.88379,3.06475,3.06475,0,0,0,.56055-2.03857,3.51,3.51,0,0,0-.32275-1.63086,2.68862,2.68862,0,0,0-.79834-.95166,2.56229,2.56229,0,0,0-1.05371-.44141,6.458,6.458,0,0,0-1.12109-.10205h-2.2085v6.21777h2.2085c.22607,0,.4585-.01074.69678-.03369a4.33525,4.33525,0,0,0,.73047-.13574Z" style="fill: #201600"/>
      <path d="M137.73511,74.89893a1.6936,1.6936,0,0,0-.30566.98535v12.334a1.69142,1.69142,0,0,0,.30566.98535,1.7668,1.7668,0,0,0,.81543.64551l.44189.16992v.2041h-2.71826L125.87671,75.78223V88.25244a1.69055,1.69055,0,0,0,.30615.98535,1.76743,1.76743,0,0,0,.81543.64551l.44141.16992v.20361h-4.24707v-.20361l.44189-.16992a1.77237,1.77237,0,0,0,.81543-.64551,1.6936,1.6936,0,0,0,.30566-.98535V75.918a1.69578,1.69578,0,0,0-.30566-.98535,1.77549,1.77549,0,0,0-.81543-.64551l-.44189-.16992v-.20361h4.28125l8.83447,12.26611V75.88428a1.69055,1.69055,0,0,0-.30615-.98535,1.76434,1.76434,0,0,0-.81543-.64551l-.44141-.16992v-.2041h4.24707v.2041l-.44189.16992A1.7668,1.7668,0,0,0,137.73511,74.89893Z" style="fill: #201600"/>
      <path d="M151.63208,74.89893a1.69055,1.69055,0,0,0-.30615.98535v12.334a1.68838,1.68838,0,0,0,.30615.98535,1.76434,1.76434,0,0,0,.81543.64551l.44141.16992v.2041h-5.43652V90.019l.44189-.16992a1.76434,1.76434,0,0,0,.81543-.64551,1.68793,1.68793,0,0,0,.30566-.98535v-12.334a1.6901,1.6901,0,0,0-.30566-.98535,1.76434,1.76434,0,0,0-.81543-.64551l-.44189-.16992v-.2041h5.43652v.2041l-.44141.16992A1.76434,1.76434,0,0,0,151.63208,74.89893Z" style="fill: #201600"/>
      <path d="M176.50366,77.03955l-.2041.03369-1.25732-1.42676a1.68351,1.68351,0,0,0-1.3252-.57764h-3.60156V88.21826a1.69142,1.69142,0,0,0,.30566.98535,1.76808,1.76808,0,0,0,.81592.64551l.44141.16992v.2041h-5.43652V90.019l.44189-.16992a1.7668,1.7668,0,0,0,.81543-.64551,1.68793,1.68793,0,0,0,.30566-.98535V75.06885h-3.60156a1.6842,1.6842,0,0,0-1.3252.57764l-1.25732,1.42676-.20361-.03369.44189-3.16016h14.20264Z" style="fill: #201600"/>
      <path d="M200.594,73.87939v.2041l-.44189.16992a1.7668,1.7668,0,0,0-.81543.64551,1.6936,1.6936,0,0,0-.30566.98535v9.48a5.27066,5.27066,0,0,1-.4248,2.10645,5.52193,5.52193,0,0,1-2.90527,2.90527,5.27236,5.27236,0,0,1-2.10645.4248h-1.563a5.273,5.273,0,0,1-2.10693-.4248,5.52327,5.52327,0,0,1-2.90479-2.90527,5.254,5.254,0,0,1-.4248-2.10645v-9.48a1.6936,1.6936,0,0,0-.30566-.98535,1.76926,1.76926,0,0,0-.81543-.64551l-.44189-.16992v-.2041h5.43652v.2041l-.44189.16992a1.7668,1.7668,0,0,0-.81543.64551,1.6936,1.6936,0,0,0-.30566.98535v9.48a6.3834,6.3834,0,0,0,.20361,1.64795,4.16786,4.16786,0,0,0,.61182,1.3418,2.93715,2.93715,0,0,0,1.05322.91748,3.23931,3.23931,0,0,0,1.5293.33984h1.25684a4.01131,4.01131,0,0,0,1.64795-.33984,4.40167,4.40167,0,0,0,2.25977-2.25928,4.01755,4.01755,0,0,0,.33984-1.64795v-9.48a1.69055,1.69055,0,0,0-.30615-.98535,1.76434,1.76434,0,0,0-.81543-.64551l-.44141-.16992v-.2041Z" style="fill: #201600"/>
      <path d="M222.20386,89.8833v.20361h-3.80518c-.09082-.18115-.2041-.42969-.33984-.74756q-.17065-.40723-.47559-1.07031-.30615-.66211-.74756-1.64795-.37427-.81519-.71387-1.59668-.33984-.78149-.6626-1.35937a3.94552,3.94552,0,0,0-.69629-.93408,1.12858,1.12858,0,0,0-.78174-.35693h-1.93652v5.74219a1.69142,1.69142,0,0,0,.30566.98535,1.76371,1.76371,0,0,0,.81543.64551l.44189.16992v.2041h-5.43652V89.917l.44189-.16992a1.76616,1.76616,0,0,0,.81543-.64551,1.69142,1.69142,0,0,0,.30566-.98535v-12.334a1.69578,1.69578,0,0,0-.30566-.98535,1.77237,1.77237,0,0,0-.81543-.64551l-.44189-.16992v-.2041h6.11621a9.68954,9.68954,0,0,1,2.81982.33984,4.35318,4.35318,0,0,1,1.71582.93457,3.13176,3.13176,0,0,1,.8667,1.376,5.70467,5.70467,0,0,1,.23779,1.665,5.95068,5.95068,0,0,1-.13574,1.291,3.69438,3.69438,0,0,1-.459,1.13818,3.19057,3.19057,0,0,1-.90039.93457,4.57846,4.57846,0,0,1-1.46094.64551,8.20746,8.20746,0,0,1,1.12109,1.69922q.47534.95142.91748,1.90283.30615.71338.57764,1.3418.27173.62915.50977,1.13818a3.006,3.006,0,0,0,1.69873,1.63135Zm-6.55762-8.86816a2.85277,2.85277,0,0,0,1.34229-.88379,3.06475,3.06475,0,0,0,.56055-2.03857,3.51,3.51,0,0,0-.32275-1.63086,2.68862,2.68862,0,0,0-.79834-.95166,2.56229,2.56229,0,0,0-1.05371-.44141,6.458,6.458,0,0,0-1.12109-.10205h-2.2085v6.21777h2.2085c.22607,0,.4585-.01074.69678-.03369a4.33525,4.33525,0,0,0,.73047-.13574Z" style="fill: #201600"/>
      <path d="M242.01343,87.063l-.47607,3.16016H229.84888V90.019l.44189-.16992a1.76434,1.76434,0,0,0,.81543-.64551,1.68793,1.68793,0,0,0,.30566-.98535v-12.334a1.6901,1.6901,0,0,0-.30566-.98535,1.76434,1.76434,0,0,0-.81543-.64551l-.44189-.16992v-.2041h10.7373l.44141,3.16016-.20361.03369-1.25732-1.42676a1.68351,1.68351,0,0,0-1.3252-.57764h-4.519V80.981h2.44678A1.75158,1.75158,0,0,0,237.8,79.89258v-.03271h.20361V83.3252H237.8V83.2915a1.77053,1.77053,0,0,0-.64551-.81543,1.69273,1.69273,0,0,0-.98535-.30615h-2.44678v6.82959h5.50439a1.682,1.682,0,0,0,1.3252-.57764l1.25732-1.42676Z" style="fill: #201600"/>
    </g>
    <g>
      <g style="opacity: 0.6900000000000001">
        <rect x="0.19727" y="81.59375" width="41.51123" height="1" style="fill: #c5c5c5"/>
      </g>
      <g style="opacity: 0.6900000000000001">
        <rect x="259.17871" y="81.59375" width="41.51172" height="1" style="fill: #c5c5c5"/>
      </g>
    </g>
    <g>
      <path d="M37.59717,43.05371V43.627l-10.10156-.07129q-.35815-.71484-.93066-2.002-.501-1.07227-1.251-2.82324-.7522-1.75342-1.9668-4.39844-1.002-2.21631-1.896-4.25488-.89429-2.03906-1.751-3.61133A10.30032,10.30032,0,0,0,17.876,23.96289a2.92132,2.92132,0,0,0-2.03711-.92969H10.689V38.31738a4.61282,4.61282,0,0,0,.78955,2.61914,4.71844,4.71844,0,0,0,2.15234,1.75781l1.14844.43066v.57422H.28467V43.125l1.14795-.43066a4.7323,4.7323,0,0,0,2.15283-1.75781,4.61983,4.61983,0,0,0,.78906-2.61914V5.38184A4.62434,4.62434,0,0,0,3.58545,2.7627,4.73844,4.73844,0,0,0,1.43262,1.00488L.28467.57422V0H16.54053a26.2573,26.2573,0,0,1,7.51514.89746,11.54494,11.54494,0,0,1,4.58008,2.43945A8.25289,8.25289,0,0,1,30.92529,6.96a14.98549,14.98549,0,0,1,.64453,4.44922,16.28941,16.28941,0,0,1-.35742,3.44434A9.25982,9.25982,0,0,1,29.96,17.90332a9.05791,9.05791,0,0,1-2.39844,2.47559,12.07331,12.07331,0,0,1-3.86328,1.72168,22.89373,22.89373,0,0,1,3.00586,4.55664q1.28833,2.54736,2.43408,5.05859.85767,1.86768,1.60986,3.5166.75,1.65088,1.32422,3.01367a8.08764,8.08764,0,0,0,4.59229,4.377ZM20.3042,19.44629a7.00309,7.00309,0,0,0,3.48047-2.332q1.46924-1.75781,1.4707-5.49023a9.86211,9.86211,0,0,0-.8252-4.377,6.32853,6.32853,0,0,0-2.1167-2.51074A7.54247,7.54247,0,0,0,19.479,3.58789a16.36755,16.36755,0,0,0-2.97754-.28711H10.61719V19.876h5.88428a13.27534,13.27534,0,0,0,3.731-.502Z" style="fill: #201600"/>
      <path d="M78.354.07227A25.67116,25.67116,0,0,1,86.78516,1.4707a21.52086,21.52086,0,0,1,7.21143,4.16211,20.39634,20.39634,0,0,1,5.05859,6.85254,22.07468,22.07468,0,0,1,1.90137,9.40039A21.83034,21.83034,0,0,1,99.05518,31.25a20.475,20.475,0,0,1-5.05859,6.81641,21.50441,21.50441,0,0,1-7.21143,4.16211A25.67116,25.67116,0,0,1,78.354,43.627a25.98181,25.98181,0,0,1-8.46729-1.39844,21.42207,21.42207,0,0,1-7.24756-4.16211A20.44857,20.44857,0,0,1,57.58057,31.25a21.8159,21.8159,0,0,1-1.90137-9.36426,22.06,22.06,0,0,1,1.90137-9.40039,20.3703,20.3703,0,0,1,5.05859-6.85254A21.43829,21.43829,0,0,1,69.88672,1.4707,25.98181,25.98181,0,0,1,78.354.07227Zm0,40.39746a15.38509,15.38509,0,0,0,6.78076-1.47266,15.83567,15.83567,0,0,0,5.20215-3.99023,18.24249,18.24249,0,0,0,3.33643-5.89551,21.797,21.797,0,0,0,1.18408-7.26172,21.79945,21.79945,0,0,0-1.18408-7.26074,18.25276,18.25276,0,0,0-3.33643-5.89551,15.83567,15.83567,0,0,0-5.20215-3.99023,16.33841,16.33841,0,0,0-13.562,0A16.21076,16.21076,0,0,0,66.335,8.69336a17.88311,17.88311,0,0,0-3.37256,5.89551,21.79945,21.79945,0,0,0-1.18408,7.26074,21.797,21.797,0,0,0,1.18408,7.26172A17.87324,17.87324,0,0,0,66.335,35.00684a16.21076,16.21076,0,0,0,5.23779,3.99023A15.37818,15.37818,0,0,0,78.354,40.46973Z" style="fill: #201600"/>
      <path d="M134.82471,17.72363q2.00757,1.14844,4.01807,2.2959a17.666,17.666,0,0,1,3.58789,2.69141,11.797,11.797,0,0,1,2.54736,3.7666,14.07131,14.07131,0,0,1,.96875,5.59766,8.91691,8.91691,0,0,1-1.21973,4.5918,12.14444,12.14444,0,0,1-3.229,3.58789,15.23463,15.23463,0,0,1-4.66406,2.332,18.49475,18.49475,0,0,1-5.52539.8252,21.45742,21.45742,0,0,1-5.1665-.71777A13.11838,13.11838,0,0,1,120.40186,39.25l-1.07666,1.5791h-.57373V32.29h.57373a15.52834,15.52834,0,0,0,2.79883,4.01855,14.87316,14.87316,0,0,0,3.65918,2.72656,11.2045,11.2045,0,0,0,5.45361,1.21973,9.17514,9.17514,0,0,0,6.06348-1.9375q2.33057-1.93652,2.332-6.24219a6.42405,6.42405,0,0,0-2.22461-4.66406,29.302,29.302,0,0,0-5.88379-4.23437q-2.00977-1.147-3.98242-2.18848a18.738,18.738,0,0,1-3.55176-2.40332,11.66,11.66,0,0,1-2.5835-3.15723,8.99039,8.99039,0,0,1-1.00439-4.44922A10.40212,10.40212,0,0,1,121.356,6.458a9.81672,9.81672,0,0,1,2.72656-3.44434A13.0451,13.0451,0,0,1,128.25879.78906,17.0919,17.0919,0,0,1,133.605,0a17.32534,17.32534,0,0,1,4.44873.61035,17.92617,17.92617,0,0,1,4.30518,1.75781l.86133-1.79395L143.79395.502,145.01367,9.041l-.57373.07227a9.895,9.895,0,0,0-2.36816-2.94238,13.364,13.364,0,0,0-3.33643-2.08105,12.18553,12.18553,0,0,0-5.05859-.93262,12.935,12.935,0,0,0-2.7627.32227,10.33108,10.33108,0,0,0-2.72705.999,6.44614,6.44614,0,0,0-2.08057,1.75,4.19324,4.19324,0,0,0-.8252,2.6416,5.10509,5.10509,0,0,0,.83057,2.89258,9.12389,9.12389,0,0,0,2.16943,2.249,24.12369,24.12369,0,0,0,3.07227,1.92676q1.73511.92871,3.543,1.92871Z" style="fill: #201600"/>
      <path d="M204.49854,2.7627a4.61687,4.61687,0,0,0-.78906,2.61914V38.31738a4.61237,4.61237,0,0,0,.78906,2.61914,4.71973,4.71973,0,0,0,2.15283,1.75781l1.14795.43066v.57422H193.30469V43.125l1.14844-.43066a4.72849,4.72849,0,0,0,2.15234-1.75781,4.62028,4.62028,0,0,0,.78955-2.61914V22.74707H174.28955V38.31738a4.61282,4.61282,0,0,0,.78955,2.61914,4.71844,4.71844,0,0,0,2.15234,1.75781l1.14844.43066v.57422H163.88525V43.125l1.14795-.43066a4.72978,4.72978,0,0,0,2.15283-1.75781,4.61983,4.61983,0,0,0,.78906-2.61914V5.38184A4.62434,4.62434,0,0,0,167.186,2.7627a4.73592,4.73592,0,0,0-2.15283-1.75781L163.88525.57422V0h14.49463V.57422l-1.14844.43066A4.72455,4.72455,0,0,0,175.0791,2.7627a4.61733,4.61733,0,0,0-.78955,2.61914v14.207H197.395V5.38184a4.6248,4.6248,0,0,0-.78955-2.61914,4.73462,4.73462,0,0,0-2.15234-1.75781L193.30469.57422V0h14.49463V.57422l-1.14795.43066A4.72584,4.72584,0,0,0,204.49854,2.7627Z" style="fill: #201600"/>
      <path d="M264.62988,2.7627a4.61687,4.61687,0,0,0-.78906,2.61914V38.31738a4.61237,4.61237,0,0,0,.78906,2.61914,4.71973,4.71973,0,0,0,2.15283,1.75781l1.14795.43066v.57422l-7.24707-.07227L232.98584,5.167V38.46094a4.61282,4.61282,0,0,0,.78955,2.61914,4.71844,4.71844,0,0,0,2.15234,1.75781l1.14844.43066v.57422h-11.3374v-.57422l1.14795-.43066a4.7323,4.7323,0,0,0,2.15283-1.75781,4.61983,4.61983,0,0,0,.78906-2.61914V5.52539a4.62434,4.62434,0,0,0-.78906-2.61914,4.73844,4.73844,0,0,0-2.15283-1.75781L225.73877.71777V.14355L237.14795.07227l23.53564,32.792V5.38184A4.6248,4.6248,0,0,0,259.894,2.7627a4.73462,4.73462,0,0,0-2.15234-1.75781L256.59326.57422V0h11.3374V.57422l-1.14795.43066A4.72584,4.72584,0,0,0,264.62988,2.7627Z" style="fill: #201600"/>
      <path d="M297.0625,2.7627a4.6206,4.6206,0,0,0-.78906,2.61914V38.31738a4.61609,4.61609,0,0,0,.78906,2.61914,4.72353,4.72353,0,0,0,2.15332,1.75781l1.14746.43066v.57422H285.86865V43.125l1.14844-.43066a4.73987,4.73987,0,0,0,2.15283-1.75781,4.62356,4.62356,0,0,0,.78906-2.61914V5.38184a4.62809,4.62809,0,0,0-.78906-2.61914,4.746,4.746,0,0,0-2.15283-1.75781L285.86865.57422V0h14.49463V.57422l-1.14746.43066A4.72965,4.72965,0,0,0,297.0625,2.7627Z" style="fill: #201600"/>
    </g>
  </g>
</svg>
